<?xml version="1.0" encoding="utf-8" standalone="no"?>
<!DOCTYPE svg PUBLIC "-//W3C//DTD SVG 1.1//EN"
  "http://www.w3.org/Graphics/SVG/1.1/DTD/svg11.dtd">
<svg xmlns:xlink="http://www.w3.org/1999/xlink" width="432pt" height="288pt" viewBox="0 0 432 288" xmlns="http://www.w3.org/2000/svg" version="1.1">
 <metadata>
  <rdf:RDF xmlns:dc="http://purl.org/dc/elements/1.1/" xmlns:cc="http://creativecommons.org/ns#" xmlns:rdf="http://www.w3.org/1999/02/22-rdf-syntax-ns#">
   <cc:Work>
    <dc:type rdf:resource="http://purl.org/dc/dcmitype/StillImage"/>
    <dc:date>2023-02-26T11:59:25.057392</dc:date>
    <dc:format>image/svg+xml</dc:format>
    <dc:creator>
     <cc:Agent>
      <dc:title>Matplotlib v3.5.1, https://matplotlib.org/</dc:title>
     </cc:Agent>
    </dc:creator>
   </cc:Work>
  </rdf:RDF>
 </metadata>
 <defs>
  <style type="text/css">*{stroke-linejoin: round; stroke-linecap: butt}</style>
 </defs>
 <g id="figure_1">
  <g id="patch_1">
   <path d="M 0 288 
L 432 288 
L 432 0 
L 0 0 
L 0 288 
z
" style="fill: none"/>
  </g>
  <g id="axes_1">
   <g id="patch_2">
    <path d="M 54 252 
L 388.8 252 
L 388.8 34.56 
L 54 34.56 
z
" style="fill: #ffffff"/>
   </g>
   <g id="matplotlib.axis_1">
    <g id="xtick_1">
     <g id="line2d_1">
      <defs>
       <path id="mfdb3bc285a" d="M 0 0 
L 0 3.5 
" style="stroke: #000000; stroke-width: 0.8"/>
      </defs>
      <g>
       <use xlink:href="#mfdb3bc285a" x="69.218182" y="252" style="stroke: #000000; stroke-width: 0.8"/>
      </g>
     </g>
     <g id="text_1">
      <!-- 0.0 -->
      <g transform="translate(61.266619 266.598437)scale(0.1 -0.1)">
       <defs>
        <path id="DejaVuSans-30" d="M 2034 4250 
Q 1547 4250 1301 3770 
Q 1056 3291 1056 2328 
Q 1056 1369 1301 889 
Q 1547 409 2034 409 
Q 2525 409 2770 889 
Q 3016 1369 3016 2328 
Q 3016 3291 2770 3770 
Q 2525 4250 2034 4250 
z
M 2034 4750 
Q 2819 4750 3233 4129 
Q 3647 3509 3647 2328 
Q 3647 1150 3233 529 
Q 2819 -91 2034 -91 
Q 1250 -91 836 529 
Q 422 1150 422 2328 
Q 422 3509 836 4129 
Q 1250 4750 2034 4750 
z
" transform="scale(0.015625)"/>
        <path id="DejaVuSans-2e" d="M 684 794 
L 1344 794 
L 1344 0 
L 684 0 
L 684 794 
z
" transform="scale(0.015625)"/>
       </defs>
       <use xlink:href="#DejaVuSans-30"/>
       <use xlink:href="#DejaVuSans-2e" x="63.623047"/>
       <use xlink:href="#DejaVuSans-30" x="95.410156"/>
      </g>
     </g>
    </g>
    <g id="xtick_2">
     <g id="line2d_2">
      <g>
       <use xlink:href="#mfdb3bc285a" x="130.090909" y="252" style="stroke: #000000; stroke-width: 0.8"/>
      </g>
     </g>
     <g id="text_2">
      <!-- 0.2 -->
      <g transform="translate(122.139347 266.598437)scale(0.1 -0.1)">
       <defs>
        <path id="DejaVuSans-32" d="M 1228 531 
L 3431 531 
L 3431 0 
L 469 0 
L 469 531 
Q 828 903 1448 1529 
Q 2069 2156 2228 2338 
Q 2531 2678 2651 2914 
Q 2772 3150 2772 3378 
Q 2772 3750 2511 3984 
Q 2250 4219 1831 4219 
Q 1534 4219 1204 4116 
Q 875 4013 500 3803 
L 500 4441 
Q 881 4594 1212 4672 
Q 1544 4750 1819 4750 
Q 2544 4750 2975 4387 
Q 3406 4025 3406 3419 
Q 3406 3131 3298 2873 
Q 3191 2616 2906 2266 
Q 2828 2175 2409 1742 
Q 1991 1309 1228 531 
z
" transform="scale(0.015625)"/>
       </defs>
       <use xlink:href="#DejaVuSans-30"/>
       <use xlink:href="#DejaVuSans-2e" x="63.623047"/>
       <use xlink:href="#DejaVuSans-32" x="95.410156"/>
      </g>
     </g>
    </g>
    <g id="xtick_3">
     <g id="line2d_3">
      <g>
       <use xlink:href="#mfdb3bc285a" x="190.963636" y="252" style="stroke: #000000; stroke-width: 0.8"/>
      </g>
     </g>
     <g id="text_3">
      <!-- 0.4 -->
      <g transform="translate(183.012074 266.598437)scale(0.1 -0.1)">
       <defs>
        <path id="DejaVuSans-34" d="M 2419 4116 
L 825 1625 
L 2419 1625 
L 2419 4116 
z
M 2253 4666 
L 3047 4666 
L 3047 1625 
L 3713 1625 
L 3713 1100 
L 3047 1100 
L 3047 0 
L 2419 0 
L 2419 1100 
L 313 1100 
L 313 1709 
L 2253 4666 
z
" transform="scale(0.015625)"/>
       </defs>
       <use xlink:href="#DejaVuSans-30"/>
       <use xlink:href="#DejaVuSans-2e" x="63.623047"/>
       <use xlink:href="#DejaVuSans-34" x="95.410156"/>
      </g>
     </g>
    </g>
    <g id="xtick_4">
     <g id="line2d_4">
      <g>
       <use xlink:href="#mfdb3bc285a" x="251.836364" y="252" style="stroke: #000000; stroke-width: 0.8"/>
      </g>
     </g>
     <g id="text_4">
      <!-- 0.6 -->
      <g transform="translate(243.884801 266.598437)scale(0.1 -0.1)">
       <defs>
        <path id="DejaVuSans-36" d="M 2113 2584 
Q 1688 2584 1439 2293 
Q 1191 2003 1191 1497 
Q 1191 994 1439 701 
Q 1688 409 2113 409 
Q 2538 409 2786 701 
Q 3034 994 3034 1497 
Q 3034 2003 2786 2293 
Q 2538 2584 2113 2584 
z
M 3366 4563 
L 3366 3988 
Q 3128 4100 2886 4159 
Q 2644 4219 2406 4219 
Q 1781 4219 1451 3797 
Q 1122 3375 1075 2522 
Q 1259 2794 1537 2939 
Q 1816 3084 2150 3084 
Q 2853 3084 3261 2657 
Q 3669 2231 3669 1497 
Q 3669 778 3244 343 
Q 2819 -91 2113 -91 
Q 1303 -91 875 529 
Q 447 1150 447 2328 
Q 447 3434 972 4092 
Q 1497 4750 2381 4750 
Q 2619 4750 2861 4703 
Q 3103 4656 3366 4563 
z
" transform="scale(0.015625)"/>
       </defs>
       <use xlink:href="#DejaVuSans-30"/>
       <use xlink:href="#DejaVuSans-2e" x="63.623047"/>
       <use xlink:href="#DejaVuSans-36" x="95.410156"/>
      </g>
     </g>
    </g>
    <g id="xtick_5">
     <g id="line2d_5">
      <g>
       <use xlink:href="#mfdb3bc285a" x="312.709091" y="252" style="stroke: #000000; stroke-width: 0.8"/>
      </g>
     </g>
     <g id="text_5">
      <!-- 0.8 -->
      <g transform="translate(304.757528 266.598437)scale(0.1 -0.1)">
       <defs>
        <path id="DejaVuSans-38" d="M 2034 2216 
Q 1584 2216 1326 1975 
Q 1069 1734 1069 1313 
Q 1069 891 1326 650 
Q 1584 409 2034 409 
Q 2484 409 2743 651 
Q 3003 894 3003 1313 
Q 3003 1734 2745 1975 
Q 2488 2216 2034 2216 
z
M 1403 2484 
Q 997 2584 770 2862 
Q 544 3141 544 3541 
Q 544 4100 942 4425 
Q 1341 4750 2034 4750 
Q 2731 4750 3128 4425 
Q 3525 4100 3525 3541 
Q 3525 3141 3298 2862 
Q 3072 2584 2669 2484 
Q 3125 2378 3379 2068 
Q 3634 1759 3634 1313 
Q 3634 634 3220 271 
Q 2806 -91 2034 -91 
Q 1263 -91 848 271 
Q 434 634 434 1313 
Q 434 1759 690 2068 
Q 947 2378 1403 2484 
z
M 1172 3481 
Q 1172 3119 1398 2916 
Q 1625 2713 2034 2713 
Q 2441 2713 2670 2916 
Q 2900 3119 2900 3481 
Q 2900 3844 2670 4047 
Q 2441 4250 2034 4250 
Q 1625 4250 1398 4047 
Q 1172 3844 1172 3481 
z
" transform="scale(0.015625)"/>
       </defs>
       <use xlink:href="#DejaVuSans-30"/>
       <use xlink:href="#DejaVuSans-2e" x="63.623047"/>
       <use xlink:href="#DejaVuSans-38" x="95.410156"/>
      </g>
     </g>
    </g>
    <g id="xtick_6">
     <g id="line2d_6">
      <g>
       <use xlink:href="#mfdb3bc285a" x="373.581818" y="252" style="stroke: #000000; stroke-width: 0.8"/>
      </g>
     </g>
     <g id="text_6">
      <!-- 1.0 -->
      <g transform="translate(365.630256 266.598437)scale(0.1 -0.1)">
       <defs>
        <path id="DejaVuSans-31" d="M 794 531 
L 1825 531 
L 1825 4091 
L 703 3866 
L 703 4441 
L 1819 4666 
L 2450 4666 
L 2450 531 
L 3481 531 
L 3481 0 
L 794 0 
L 794 531 
z
" transform="scale(0.015625)"/>
       </defs>
       <use xlink:href="#DejaVuSans-31"/>
       <use xlink:href="#DejaVuSans-2e" x="63.623047"/>
       <use xlink:href="#DejaVuSans-30" x="95.410156"/>
      </g>
     </g>
    </g>
    <g id="text_7">
     <!-- y-coordinate -->
     <g transform="translate(190.055469 280.276563)scale(0.1 -0.1)">
      <defs>
       <path id="DejaVuSans-79" d="M 2059 -325 
Q 1816 -950 1584 -1140 
Q 1353 -1331 966 -1331 
L 506 -1331 
L 506 -850 
L 844 -850 
Q 1081 -850 1212 -737 
Q 1344 -625 1503 -206 
L 1606 56 
L 191 3500 
L 800 3500 
L 1894 763 
L 2988 3500 
L 3597 3500 
L 2059 -325 
z
" transform="scale(0.015625)"/>
       <path id="DejaVuSans-2d" d="M 313 2009 
L 1997 2009 
L 1997 1497 
L 313 1497 
L 313 2009 
z
" transform="scale(0.015625)"/>
       <path id="DejaVuSans-63" d="M 3122 3366 
L 3122 2828 
Q 2878 2963 2633 3030 
Q 2388 3097 2138 3097 
Q 1578 3097 1268 2742 
Q 959 2388 959 1747 
Q 959 1106 1268 751 
Q 1578 397 2138 397 
Q 2388 397 2633 464 
Q 2878 531 3122 666 
L 3122 134 
Q 2881 22 2623 -34 
Q 2366 -91 2075 -91 
Q 1284 -91 818 406 
Q 353 903 353 1747 
Q 353 2603 823 3093 
Q 1294 3584 2113 3584 
Q 2378 3584 2631 3529 
Q 2884 3475 3122 3366 
z
" transform="scale(0.015625)"/>
       <path id="DejaVuSans-6f" d="M 1959 3097 
Q 1497 3097 1228 2736 
Q 959 2375 959 1747 
Q 959 1119 1226 758 
Q 1494 397 1959 397 
Q 2419 397 2687 759 
Q 2956 1122 2956 1747 
Q 2956 2369 2687 2733 
Q 2419 3097 1959 3097 
z
M 1959 3584 
Q 2709 3584 3137 3096 
Q 3566 2609 3566 1747 
Q 3566 888 3137 398 
Q 2709 -91 1959 -91 
Q 1206 -91 779 398 
Q 353 888 353 1747 
Q 353 2609 779 3096 
Q 1206 3584 1959 3584 
z
" transform="scale(0.015625)"/>
       <path id="DejaVuSans-72" d="M 2631 2963 
Q 2534 3019 2420 3045 
Q 2306 3072 2169 3072 
Q 1681 3072 1420 2755 
Q 1159 2438 1159 1844 
L 1159 0 
L 581 0 
L 581 3500 
L 1159 3500 
L 1159 2956 
Q 1341 3275 1631 3429 
Q 1922 3584 2338 3584 
Q 2397 3584 2469 3576 
Q 2541 3569 2628 3553 
L 2631 2963 
z
" transform="scale(0.015625)"/>
       <path id="DejaVuSans-64" d="M 2906 2969 
L 2906 4863 
L 3481 4863 
L 3481 0 
L 2906 0 
L 2906 525 
Q 2725 213 2448 61 
Q 2172 -91 1784 -91 
Q 1150 -91 751 415 
Q 353 922 353 1747 
Q 353 2572 751 3078 
Q 1150 3584 1784 3584 
Q 2172 3584 2448 3432 
Q 2725 3281 2906 2969 
z
M 947 1747 
Q 947 1113 1208 752 
Q 1469 391 1925 391 
Q 2381 391 2643 752 
Q 2906 1113 2906 1747 
Q 2906 2381 2643 2742 
Q 2381 3103 1925 3103 
Q 1469 3103 1208 2742 
Q 947 2381 947 1747 
z
" transform="scale(0.015625)"/>
       <path id="DejaVuSans-69" d="M 603 3500 
L 1178 3500 
L 1178 0 
L 603 0 
L 603 3500 
z
M 603 4863 
L 1178 4863 
L 1178 4134 
L 603 4134 
L 603 4863 
z
" transform="scale(0.015625)"/>
       <path id="DejaVuSans-6e" d="M 3513 2113 
L 3513 0 
L 2938 0 
L 2938 2094 
Q 2938 2591 2744 2837 
Q 2550 3084 2163 3084 
Q 1697 3084 1428 2787 
Q 1159 2491 1159 1978 
L 1159 0 
L 581 0 
L 581 3500 
L 1159 3500 
L 1159 2956 
Q 1366 3272 1645 3428 
Q 1925 3584 2291 3584 
Q 2894 3584 3203 3211 
Q 3513 2838 3513 2113 
z
" transform="scale(0.015625)"/>
       <path id="DejaVuSans-61" d="M 2194 1759 
Q 1497 1759 1228 1600 
Q 959 1441 959 1056 
Q 959 750 1161 570 
Q 1363 391 1709 391 
Q 2188 391 2477 730 
Q 2766 1069 2766 1631 
L 2766 1759 
L 2194 1759 
z
M 3341 1997 
L 3341 0 
L 2766 0 
L 2766 531 
Q 2569 213 2275 61 
Q 1981 -91 1556 -91 
Q 1019 -91 701 211 
Q 384 513 384 1019 
Q 384 1609 779 1909 
Q 1175 2209 1959 2209 
L 2766 2209 
L 2766 2266 
Q 2766 2663 2505 2880 
Q 2244 3097 1772 3097 
Q 1472 3097 1187 3025 
Q 903 2953 641 2809 
L 641 3341 
Q 956 3463 1253 3523 
Q 1550 3584 1831 3584 
Q 2591 3584 2966 3190 
Q 3341 2797 3341 1997 
z
" transform="scale(0.015625)"/>
       <path id="DejaVuSans-74" d="M 1172 4494 
L 1172 3500 
L 2356 3500 
L 2356 3053 
L 1172 3053 
L 1172 1153 
Q 1172 725 1289 603 
Q 1406 481 1766 481 
L 2356 481 
L 2356 0 
L 1766 0 
Q 1100 0 847 248 
Q 594 497 594 1153 
L 594 3053 
L 172 3053 
L 172 3500 
L 594 3500 
L 594 4494 
L 1172 4494 
z
" transform="scale(0.015625)"/>
       <path id="DejaVuSans-65" d="M 3597 1894 
L 3597 1613 
L 953 1613 
Q 991 1019 1311 708 
Q 1631 397 2203 397 
Q 2534 397 2845 478 
Q 3156 559 3463 722 
L 3463 178 
Q 3153 47 2828 -22 
Q 2503 -91 2169 -91 
Q 1331 -91 842 396 
Q 353 884 353 1716 
Q 353 2575 817 3079 
Q 1281 3584 2069 3584 
Q 2775 3584 3186 3129 
Q 3597 2675 3597 1894 
z
M 3022 2063 
Q 3016 2534 2758 2815 
Q 2500 3097 2075 3097 
Q 1594 3097 1305 2825 
Q 1016 2553 972 2059 
L 3022 2063 
z
" transform="scale(0.015625)"/>
      </defs>
      <use xlink:href="#DejaVuSans-79"/>
      <use xlink:href="#DejaVuSans-2d" x="57.429688"/>
      <use xlink:href="#DejaVuSans-63" x="93.513672"/>
      <use xlink:href="#DejaVuSans-6f" x="148.494141"/>
      <use xlink:href="#DejaVuSans-6f" x="209.675781"/>
      <use xlink:href="#DejaVuSans-72" x="270.857422"/>
      <use xlink:href="#DejaVuSans-64" x="310.220703"/>
      <use xlink:href="#DejaVuSans-69" x="373.697266"/>
      <use xlink:href="#DejaVuSans-6e" x="401.480469"/>
      <use xlink:href="#DejaVuSans-61" x="464.859375"/>
      <use xlink:href="#DejaVuSans-74" x="526.138672"/>
      <use xlink:href="#DejaVuSans-65" x="565.347656"/>
     </g>
    </g>
   </g>
   <g id="matplotlib.axis_2">
    <g id="ytick_1">
     <g id="line2d_7">
      <defs>
       <path id="m992a5f764a" d="M 0 0 
L -3.5 0 
" style="stroke: #000000; stroke-width: 0.8"/>
      </defs>
      <g>
       <use xlink:href="#m992a5f764a" x="54" y="242.116364" style="stroke: #000000; stroke-width: 0.8"/>
      </g>
     </g>
     <g id="text_8">
      <!-- 0.0 -->
      <g transform="translate(31.096875 245.915582)scale(0.1 -0.1)">
       <use xlink:href="#DejaVuSans-30"/>
       <use xlink:href="#DejaVuSans-2e" x="63.623047"/>
       <use xlink:href="#DejaVuSans-30" x="95.410156"/>
      </g>
     </g>
    </g>
    <g id="ytick_2">
     <g id="line2d_8">
      <g>
       <use xlink:href="#m992a5f764a" x="54" y="202.581818" style="stroke: #000000; stroke-width: 0.8"/>
      </g>
     </g>
     <g id="text_9">
      <!-- 0.2 -->
      <g transform="translate(31.096875 206.381037)scale(0.1 -0.1)">
       <use xlink:href="#DejaVuSans-30"/>
       <use xlink:href="#DejaVuSans-2e" x="63.623047"/>
       <use xlink:href="#DejaVuSans-32" x="95.410156"/>
      </g>
     </g>
    </g>
    <g id="ytick_3">
     <g id="line2d_9">
      <g>
       <use xlink:href="#m992a5f764a" x="54" y="163.047273" style="stroke: #000000; stroke-width: 0.8"/>
      </g>
     </g>
     <g id="text_10">
      <!-- 0.4 -->
      <g transform="translate(31.096875 166.846491)scale(0.1 -0.1)">
       <use xlink:href="#DejaVuSans-30"/>
       <use xlink:href="#DejaVuSans-2e" x="63.623047"/>
       <use xlink:href="#DejaVuSans-34" x="95.410156"/>
      </g>
     </g>
    </g>
    <g id="ytick_4">
     <g id="line2d_10">
      <g>
       <use xlink:href="#m992a5f764a" x="54" y="123.512727" style="stroke: #000000; stroke-width: 0.8"/>
      </g>
     </g>
     <g id="text_11">
      <!-- 0.6 -->
      <g transform="translate(31.096875 127.311946)scale(0.1 -0.1)">
       <use xlink:href="#DejaVuSans-30"/>
       <use xlink:href="#DejaVuSans-2e" x="63.623047"/>
       <use xlink:href="#DejaVuSans-36" x="95.410156"/>
      </g>
     </g>
    </g>
    <g id="ytick_5">
     <g id="line2d_11">
      <g>
       <use xlink:href="#m992a5f764a" x="54" y="83.978182" style="stroke: #000000; stroke-width: 0.8"/>
      </g>
     </g>
     <g id="text_12">
      <!-- 0.8 -->
      <g transform="translate(31.096875 87.777401)scale(0.1 -0.1)">
       <use xlink:href="#DejaVuSans-30"/>
       <use xlink:href="#DejaVuSans-2e" x="63.623047"/>
       <use xlink:href="#DejaVuSans-38" x="95.410156"/>
      </g>
     </g>
    </g>
    <g id="ytick_6">
     <g id="line2d_12">
      <g>
       <use xlink:href="#m992a5f764a" x="54" y="44.443636" style="stroke: #000000; stroke-width: 0.8"/>
      </g>
     </g>
     <g id="text_13">
      <!-- 1.0 -->
      <g transform="translate(31.096875 48.242855)scale(0.1 -0.1)">
       <use xlink:href="#DejaVuSans-31"/>
       <use xlink:href="#DejaVuSans-2e" x="63.623047"/>
       <use xlink:href="#DejaVuSans-30" x="95.410156"/>
      </g>
     </g>
    </g>
    <g id="text_14">
     <!-- concentration -->
     <g transform="translate(25.017187 177.908906)rotate(-90)scale(0.1 -0.1)">
      <use xlink:href="#DejaVuSans-63"/>
      <use xlink:href="#DejaVuSans-6f" x="54.980469"/>
      <use xlink:href="#DejaVuSans-6e" x="116.162109"/>
      <use xlink:href="#DejaVuSans-63" x="179.541016"/>
      <use xlink:href="#DejaVuSans-65" x="234.521484"/>
      <use xlink:href="#DejaVuSans-6e" x="296.044922"/>
      <use xlink:href="#DejaVuSans-74" x="359.423828"/>
      <use xlink:href="#DejaVuSans-72" x="398.632812"/>
      <use xlink:href="#DejaVuSans-61" x="439.746094"/>
      <use xlink:href="#DejaVuSans-74" x="501.025391"/>
      <use xlink:href="#DejaVuSans-69" x="540.234375"/>
      <use xlink:href="#DejaVuSans-6f" x="568.017578"/>
      <use xlink:href="#DejaVuSans-6e" x="629.199219"/>
     </g>
    </g>
   </g>
   <g id="line2d_13">
    <path d="M 69.218182 242.116364 
L 75.429685 242.116364 
L 81.641187 242.116364 
L 87.85269 242.116364 
L 94.064193 242.116364 
L 100.275696 242.116364 
L 106.487199 242.116364 
L 112.698701 242.116364 
L 118.910204 242.116364 
L 125.121707 242.116364 
L 131.33321 242.116364 
L 137.544712 242.116364 
L 143.756215 242.116364 
L 149.967718 242.116364 
L 156.179221 242.116364 
L 162.390724 242.116364 
L 168.602226 242.116364 
L 174.813729 242.116364 
L 181.025232 242.116364 
L 187.236735 242.116364 
L 193.448237 242.116364 
L 199.65974 242.116364 
L 205.871243 242.116364 
L 212.082746 242.116364 
L 218.294249 242.116364 
L 224.505751 242.116364 
L 230.717254 242.116364 
L 236.928757 242.116364 
L 243.14026 242.116364 
L 249.351763 242.116364 
L 255.563265 242.116364 
L 261.774768 242.116364 
L 267.986271 242.116364 
L 274.197774 242.116364 
L 280.409276 242.116364 
L 286.620779 242.116364 
L 292.832282 242.116363 
L 299.043785 242.116355 
L 305.255288 242.116261 
L 311.46679 242.115369 
L 317.678293 242.108442 
L 323.889796 242.064672 
L 330.101299 241.839365 
L 336.312801 240.894626 
L 342.524304 237.667356 
L 348.735807 228.685198 
L 354.94731 208.315781 
L 361.158813 170.675376 
L 367.370315 113.995731 
L 373.581818 44.443636 
" clip-path="url(#pbd1186e220)" style="fill: none; stroke: #0000ff; stroke-width: 1.5; stroke-linecap: square"/>
   </g>
   <g id="line2d_14">
    <path d="M 373.581818 44.443636 
L 367.370315 108.165519 
L 361.158813 162.084034 
L 354.94731 200.59726 
L 348.735807 223.705195 
L 342.524304 235.259163 
L 336.312801 240.016679 
L 330.101299 241.602518 
L 323.889796 242.019844 
L 317.678293 242.103309 
L 311.46679 242.115233 
L 305.255288 242.116317 
L 299.043785 242.116364 
L 292.832282 242.116364 
L 286.620779 242.116364 
L 280.409276 242.116364 
L 274.197774 242.116364 
L 267.986271 242.116364 
L 261.774768 242.116364 
L 255.563265 242.116364 
L 249.351763 242.116364 
L 243.14026 242.116364 
L 236.928757 242.116364 
L 230.717254 242.116364 
L 224.505751 242.116364 
L 218.294249 242.116364 
L 212.082746 242.116364 
L 205.871243 242.116364 
L 199.65974 242.116364 
L 193.448237 242.116364 
L 187.236735 242.116364 
L 181.025232 242.116364 
L 174.813729 242.116364 
L 168.602226 242.116364 
L 162.390724 242.116364 
L 156.179221 242.116364 
L 149.967718 242.116364 
L 143.756215 242.116364 
L 137.544712 242.116364 
L 131.33321 242.116364 
L 125.121707 242.116364 
L 118.910204 242.116364 
L 112.698701 242.116364 
L 106.487199 242.116364 
L 100.275696 242.116364 
L 94.064193 242.116364 
L 87.85269 242.116364 
L 81.641187 242.116364 
L 75.429685 242.116364 
L 69.218182 242.116364 
" clip-path="url(#pbd1186e220)" style="fill: none; stroke-dasharray: 3,4.95; stroke-dashoffset: 0; stroke: #0000ff; stroke-width: 3"/>
   </g>
   <g id="line2d_15">
    <path d="M 69.218182 242.116364 
L 75.429685 242.116364 
L 81.641187 242.116364 
L 87.85269 242.116364 
L 94.064193 242.116364 
L 100.275696 242.116364 
L 106.487199 242.116364 
L 112.698701 242.116363 
L 118.910204 242.116363 
L 125.121707 242.116362 
L 131.33321 242.11636 
L 137.544712 242.116355 
L 143.756215 242.116345 
L 149.967718 242.116323 
L 156.179221 242.116277 
L 162.390724 242.11618 
L 168.602226 242.115985 
L 174.813729 242.115597 
L 181.025232 242.114843 
L 187.236735 242.113406 
L 193.448237 242.110725 
L 199.65974 242.105825 
L 205.871243 242.097056 
L 212.082746 242.081685 
L 218.294249 242.055295 
L 224.505751 242.010918 
L 230.717254 241.937832 
L 236.928757 241.819938 
L 243.14026 241.63368 
L 249.351763 241.345468 
L 255.563265 240.90867 
L 261.774768 240.260305 
L 267.986271 239.317699 
L 274.197774 237.975512 
L 280.409276 236.10368 
L 286.620779 233.546905 
L 292.832282 230.126403 
L 299.043785 225.644541 
L 305.255288 219.892805 
L 311.46679 212.66326 
L 317.678293 203.763167 
L 323.889796 193.031931 
L 330.101299 180.359013 
L 336.312801 165.701 
L 342.524304 149.095757 
L 348.735807 130.671628 
L 354.94731 110.649953 
L 361.158813 89.339856 
L 367.370315 67.125069 
L 373.581818 44.443636 
" clip-path="url(#pbd1186e220)" style="fill: none; stroke: #ffa500; stroke-width: 1.5; stroke-linecap: square"/>
   </g>
   <g id="line2d_16">
    <path d="M 373.581818 44.443636 
L 367.370315 66.501808 
L 361.158813 88.131665 
L 354.94731 108.929605 
L 348.735807 128.539091 
L 342.524304 146.668616 
L 336.312801 163.103792 
L 330.101299 177.712838 
L 323.889796 190.445493 
L 317.678293 201.326125 
L 311.46679 210.442331 
L 305.255288 217.930642 
L 299.043785 223.961053 
L 292.832282 228.721903 
L 286.620779 232.406387 
L 280.409276 235.201513 
L 274.197774 237.27994 
L 267.986271 238.794725 
L 261.774768 239.876715 
L 255.563265 240.634108 
L 249.351763 241.153642 
L 243.14026 241.502837 
L 236.928757 241.732794 
L 230.717254 241.881154 
L 224.505751 241.974918 
L 218.294249 242.032962 
L 212.082746 242.068154 
L 205.871243 242.089049 
L 199.65974 242.101197 
L 193.448237 242.108113 
L 187.236735 242.111966 
L 181.025232 242.114068 
L 174.813729 242.11519 
L 168.602226 242.115776 
L 162.390724 242.116076 
L 156.179221 242.116226 
L 149.967718 242.116299 
L 143.756215 242.116334 
L 137.544712 242.11635 
L 131.33321 242.116358 
L 125.121707 242.116361 
L 118.910204 242.116363 
L 112.698701 242.116363 
L 106.487199 242.116363 
L 100.275696 242.116364 
L 94.064193 242.116364 
L 87.85269 242.116364 
L 81.641187 242.116364 
L 75.429685 242.116364 
L 69.218182 242.116364 
" clip-path="url(#pbd1186e220)" style="fill: none; stroke-dasharray: 3,4.95; stroke-dashoffset: 0; stroke: #ffa500; stroke-width: 3"/>
   </g>
   <g id="line2d_17">
    <path d="M 69.218182 242.116364 
L 75.429685 240.933126 
L 81.641187 239.740048 
L 87.85269 238.527301 
L 94.064193 237.285076 
L 100.275696 236.003597 
L 106.487199 234.673135 
L 112.698701 233.284021 
L 118.910204 231.82666 
L 125.121707 230.291557 
L 131.33321 228.66933 
L 137.544712 226.950738 
L 143.756215 225.12671 
L 149.967718 223.188367 
L 156.179221 221.127066 
L 162.390724 218.934423 
L 168.602226 216.602361 
L 174.813729 214.123148 
L 181.025232 211.489437 
L 187.236735 208.694314 
L 193.448237 205.731347 
L 199.65974 202.594629 
L 205.871243 199.278828 
L 212.082746 195.779238 
L 218.294249 192.091823 
L 224.505751 188.213266 
L 230.717254 184.141012 
L 236.928757 179.873311 
L 243.14026 175.409258 
L 249.351763 170.748822 
L 255.563265 165.892884 
L 261.774768 160.843255 
L 267.986271 155.602699 
L 274.197774 150.174943 
L 280.409276 144.564684 
L 286.620779 138.777589 
L 292.832282 132.82028 
L 299.043785 126.700323 
L 305.255288 120.4262 
L 311.46679 114.007279 
L 317.678293 107.453769 
L 323.889796 100.776674 
L 330.101299 93.987739 
L 336.312801 87.099385 
L 342.524304 80.124638 
L 348.735807 73.07706 
L 354.94731 65.970661 
L 361.158813 58.819822 
L 367.370315 51.639199 
L 373.581818 44.443636 
" clip-path="url(#pbd1186e220)" style="fill: none; stroke: #ff0000; stroke-width: 1.5; stroke-linecap: square"/>
   </g>
   <g id="line2d_18">
    <path d="M 373.581818 44.443636 
L 367.370315 51.490127 
L 361.158813 58.522604 
L 354.94731 65.527137 
L 348.735807 72.489968 
L 342.524304 79.397589 
L 336.312801 86.236821 
L 330.101299 92.994898 
L 323.889796 99.659534 
L 317.678293 106.218992 
L 311.46679 112.66215 
L 305.255288 118.978558 
L 299.043785 125.158489 
L 292.832282 131.192985 
L 286.620779 137.073897 
L 280.409276 142.793915 
L 274.197774 148.346594 
L 267.986271 153.72637 
L 261.774768 158.928577 
L 255.563265 163.949445 
L 249.351763 168.786102 
L 243.14026 173.436563 
L 236.928757 177.899719 
L 230.717254 182.175318 
L 224.505751 186.263937 
L 218.294249 190.166959 
L 212.082746 193.886536 
L 205.871243 197.425557 
L 199.65974 200.787608 
L 193.448237 203.976935 
L 187.236735 206.998397 
L 181.025232 209.857429 
L 174.813729 212.559998 
L 168.602226 215.112556 
L 162.390724 217.522004 
L 156.179221 219.795648 
L 149.967718 221.941157 
L 143.756215 223.966529 
L 137.544712 225.880051 
L 131.33321 227.690269 
L 125.121707 229.405951 
L 118.910204 231.036059 
L 112.698701 232.589726 
L 106.487199 234.076222 
L 100.275696 235.50494 
L 94.064193 236.885368 
L 87.85269 238.227075 
L 81.641187 239.53969 
L 75.429685 240.832885 
L 69.218182 242.116364 
" clip-path="url(#pbd1186e220)" style="fill: none; stroke-dasharray: 3,4.95; stroke-dashoffset: 0; stroke: #ff0000; stroke-width: 3"/>
   </g>
   <g id="line2d_19">
    <path d="M 69.218182 242.116364 
L 75.429685 238.082643 
L 81.641187 234.048921 
L 87.85269 230.015196 
L 94.064193 225.981466 
L 100.275696 221.947728 
L 106.487199 217.913982 
L 112.698701 213.880227 
L 118.910204 209.846459 
L 125.121707 205.812679 
L 131.33321 201.778884 
L 137.544712 197.745073 
L 143.756215 193.711244 
L 149.967718 189.677397 
L 156.179221 185.64353 
L 162.390724 181.609643 
L 168.602226 177.575733 
L 174.813729 173.541801 
L 181.025232 169.507844 
L 187.236735 165.473864 
L 193.448237 161.439858 
L 199.65974 157.405826 
L 205.871243 153.371769 
L 212.082746 149.337685 
L 218.294249 145.303574 
L 224.505751 141.269437 
L 230.717254 137.235273 
L 236.928757 133.201082 
L 243.14026 129.166865 
L 249.351763 125.132622 
L 255.563265 121.098353 
L 261.774768 117.064059 
L 267.986271 113.029741 
L 274.197774 108.995399 
L 280.409276 104.961034 
L 286.620779 100.926647 
L 292.832282 96.89224 
L 299.043785 92.857812 
L 305.255288 88.823366 
L 311.46679 84.788902 
L 317.678293 80.754423 
L 323.889796 76.719929 
L 330.101299 72.685422 
L 336.312801 68.650903 
L 342.524304 64.616374 
L 348.735807 60.581837 
L 354.94731 56.547292 
L 361.158813 52.512743 
L 367.370315 48.478191 
L 373.581818 44.443636 
" clip-path="url(#pbd1186e220)" style="fill: none; stroke: #008000; stroke-width: 1.5; stroke-linecap: square"/>
   </g>
   <g id="line2d_20">
    <path d="M 373.581818 44.443636 
L 367.370315 48.478051 
L 361.158813 52.512464 
L 354.94731 56.546875 
L 348.735807 60.581282 
L 342.524304 64.615685 
L 336.312801 68.650083 
L 330.101299 72.684473 
L 323.889796 76.718856 
L 317.678293 80.753231 
L 311.46679 84.787595 
L 305.255288 88.821949 
L 299.043785 92.856292 
L 292.832282 96.890622 
L 286.620779 100.924939 
L 280.409276 104.959242 
L 274.197774 108.99353 
L 267.986271 113.027804 
L 261.774768 117.062061 
L 255.563265 121.096303 
L 249.351763 125.130527 
L 243.14026 129.164735 
L 236.928757 133.198925 
L 230.717254 137.233098 
L 224.505751 141.267253 
L 218.294249 145.30139 
L 212.082746 149.33551 
L 205.871243 153.369612 
L 199.65974 157.403696 
L 193.448237 161.437763 
L 187.236735 165.471813 
L 181.025232 169.505846 
L 174.813729 173.539863 
L 168.602226 177.573864 
L 162.390724 181.60785 
L 156.179221 185.641822 
L 149.967718 189.67578 
L 143.756215 193.709724 
L 137.544712 197.743656 
L 131.33321 201.777577 
L 125.121707 205.811487 
L 118.910204 209.845387 
L 112.698701 213.879279 
L 106.487199 217.913162 
L 100.275696 221.94704 
L 94.064193 225.980911 
L 87.85269 230.014778 
L 81.641187 234.048642 
L 75.429685 238.082503 
L 69.218182 242.116364 
" clip-path="url(#pbd1186e220)" style="fill: none; stroke-dasharray: 3,4.95; stroke-dashoffset: 0; stroke: #008000; stroke-width: 3"/>
   </g>
   <g id="patch_3">
    <path d="M 54 252 
L 54 34.56 
" style="fill: none; stroke: #000000; stroke-width: 0.8; stroke-linejoin: miter; stroke-linecap: square"/>
   </g>
   <g id="patch_4">
    <path d="M 388.8 252 
L 388.8 34.56 
" style="fill: none; stroke: #000000; stroke-width: 0.8; stroke-linejoin: miter; stroke-linecap: square"/>
   </g>
   <g id="patch_5">
    <path d="M 54 252 
L 388.8 252 
" style="fill: none; stroke: #000000; stroke-width: 0.8; stroke-linejoin: miter; stroke-linecap: square"/>
   </g>
   <g id="patch_6">
    <path d="M 54 34.56 
L 388.8 34.56 
" style="fill: none; stroke: #000000; stroke-width: 0.8; stroke-linejoin: miter; stroke-linecap: square"/>
   </g>
   <g id="legend_1">
    <g id="patch_7">
     <path d="M 61 101.2725 
L 133.928125 101.2725 
Q 135.928125 101.2725 135.928125 99.2725 
L 135.928125 41.56 
Q 135.928125 39.56 133.928125 39.56 
L 61 39.56 
Q 59 39.56 59 41.56 
L 59 99.2725 
Q 59 101.2725 61 101.2725 
z
" style="fill: #ffffff; opacity: 0.8; stroke: #cccccc; stroke-linejoin: miter"/>
    </g>
    <g id="line2d_21">
     <path d="M 63 47.658437 
L 73 47.658437 
L 83 47.658437 
" style="fill: none; stroke: #0000ff; stroke-width: 1.5; stroke-linecap: square"/>
    </g>
    <g id="text_15">
     <!-- t=0.001 -->
     <g transform="translate(91 51.158437)scale(0.1 -0.1)">
      <defs>
       <path id="DejaVuSans-3d" d="M 678 2906 
L 4684 2906 
L 4684 2381 
L 678 2381 
L 678 2906 
z
M 678 1631 
L 4684 1631 
L 4684 1100 
L 678 1100 
L 678 1631 
z
" transform="scale(0.015625)"/>
      </defs>
      <use xlink:href="#DejaVuSans-74"/>
      <use xlink:href="#DejaVuSans-3d" x="39.208984"/>
      <use xlink:href="#DejaVuSans-30" x="122.998047"/>
      <use xlink:href="#DejaVuSans-2e" x="186.621094"/>
      <use xlink:href="#DejaVuSans-30" x="218.408203"/>
      <use xlink:href="#DejaVuSans-30" x="282.03125"/>
      <use xlink:href="#DejaVuSans-31" x="345.654297"/>
     </g>
    </g>
    <g id="line2d_22">
     <path d="M 63 62.336562 
L 73 62.336562 
L 83 62.336562 
" style="fill: none; stroke: #ffa500; stroke-width: 1.5; stroke-linecap: square"/>
    </g>
    <g id="text_16">
     <!-- t=0.01 -->
     <g transform="translate(91 65.836562)scale(0.1 -0.1)">
      <use xlink:href="#DejaVuSans-74"/>
      <use xlink:href="#DejaVuSans-3d" x="39.208984"/>
      <use xlink:href="#DejaVuSans-30" x="122.998047"/>
      <use xlink:href="#DejaVuSans-2e" x="186.621094"/>
      <use xlink:href="#DejaVuSans-30" x="218.408203"/>
      <use xlink:href="#DejaVuSans-31" x="282.03125"/>
     </g>
    </g>
    <g id="line2d_23">
     <path d="M 63 77.014687 
L 73 77.014687 
L 83 77.014687 
" style="fill: none; stroke: #ff0000; stroke-width: 1.5; stroke-linecap: square"/>
    </g>
    <g id="text_17">
     <!-- t=0.1 -->
     <g transform="translate(91 80.514687)scale(0.1 -0.1)">
      <use xlink:href="#DejaVuSans-74"/>
      <use xlink:href="#DejaVuSans-3d" x="39.208984"/>
      <use xlink:href="#DejaVuSans-30" x="122.998047"/>
      <use xlink:href="#DejaVuSans-2e" x="186.621094"/>
      <use xlink:href="#DejaVuSans-31" x="218.408203"/>
     </g>
    </g>
    <g id="line2d_24">
     <path d="M 63 91.692813 
L 73 91.692813 
L 83 91.692813 
" style="fill: none; stroke: #008000; stroke-width: 1.5; stroke-linecap: square"/>
    </g>
    <g id="text_18">
     <!-- t=1 -->
     <g transform="translate(91 95.192813)scale(0.1 -0.1)">
      <use xlink:href="#DejaVuSans-74"/>
      <use xlink:href="#DejaVuSans-3d" x="39.208984"/>
      <use xlink:href="#DejaVuSans-31" x="122.998047"/>
     </g>
    </g>
   </g>
  </g>
 </g>
 <defs>
  <clipPath id="pbd1186e220">
   <rect x="54" y="34.56" width="334.8" height="217.44"/>
  </clipPath>
 </defs>
</svg>
